<svg aria-hidden="true" style="position: absolute; width: 0; height: 0; overflow: hidden;" version="1.1" xmlns="http://www.w3.org/2000/svg" xmlns:xlink="http://www.w3.org/1999/xlink">
    <defs>
        <symbol id="icon-search" viewBox="0 0 32 32">
            <path d="M13.44 1.92c-6.015 0-10.88 4.865-10.88 10.88s4.865 10.88 10.88 10.88c2.147 0 4.134-0.63 5.82-1.7l7.86 7.86 2.72-2.72-7.76-7.74c1.395-1.83 2.24-4.097 2.24-6.58 0-6.015-4.865-10.88-10.88-10.88zM13.44 4.48c4.608 0 8.32 3.712 8.32 8.32s-3.712 8.32-8.32 8.32-8.32-3.712-8.32-8.32 3.712-8.32 8.32-8.32z"></path>
        </symbol>
        <symbol id="icon-spinner" viewBox="0 0 32 32">
            <path fill="#b72f2b" style="fill: var(--color1, #b72f2b)" opacity="0.066667" d="M16 6.080c0.442 0 0.8 0.413 0.8 0.922v1.997c0 0.509-0.358 0.922-0.8 0.922s-0.8-0.413-0.8-0.922v-1.997c0-0.509 0.358-0.922 0.8-0.922z"></path>
            <path fill="#b72f2b" style="fill: var(--color1, #b72f2b)" opacity="0.133334" d="M20.035 6.938c0.404 0.18 0.563 0.702 0.356 1.167l-0.812 1.824c-0.207 0.465-0.702 0.696-1.106 0.517s-0.563-0.702-0.356-1.167l0.812-1.824c0.207-0.465 0.702-0.696 1.106-0.517z"></path>
            <path fill="#b72f2b" style="fill: var(--color1, #b72f2b)" opacity="0.2" d="M23.372 9.362c0.296 0.328 0.229 0.871-0.15 1.211l-1.484 1.336c-0.378 0.341-0.925 0.351-1.22 0.022s-0.229-0.871 0.15-1.211l1.484-1.336c0.378-0.341 0.925-0.351 1.22-0.022z"></path>
            <path fill="#b72f2b" style="fill: var(--color1, #b72f2b)" opacity="0.266667" d="M25.434 12.935c0.137 0.42-0.145 0.888-0.629 1.046l-1.899 0.617c-0.484 0.157-0.987-0.056-1.124-0.476s0.145-0.888 0.629-1.046l1.899-0.617c0.484-0.157 0.987 0.056 1.124 0.476z"></path>
            <path fill="#b72f2b" style="fill: var(--color1, #b72f2b)" opacity="0.333334" d="M25.866 17.037c-0.046 0.439-0.494 0.753-1 0.699l-1.986-0.209c-0.506-0.053-0.879-0.453-0.833-0.892s0.494-0.752 1-0.699l1.986 0.209c0.506 0.053 0.879 0.453 0.833 0.892z"></path>
            <path fill="#b72f2b" style="fill: var(--color1, #b72f2b)" opacity="0.4" d="M24.591 20.96c-0.221 0.383-0.757 0.486-1.198 0.232l-1.729-0.998c-0.441-0.255-0.619-0.771-0.398-1.154s0.757-0.486 1.198-0.232l1.729 0.998c0.441 0.255 0.619 0.771 0.398 1.154z"></path>
            <path fill="#b72f2b" style="fill: var(--color1, #b72f2b)" opacity="0.466667" d="M21.831 24.025c-0.357 0.26-0.89 0.136-1.189-0.275l-1.174-1.615c-0.299-0.412-0.252-0.956 0.105-1.216s0.89-0.136 1.189 0.275l1.174 1.615c0.299 0.412 0.252 0.956-0.105 1.216z"></path>
            <path fill="#b72f2b" style="fill: var(--color1, #b72f2b)" opacity="0.533334" d="M18.062 25.703c-0.432 0.092-0.868-0.237-0.974-0.735l-0.415-1.953c-0.106-0.498 0.159-0.976 0.591-1.068s0.868 0.237 0.974 0.735l0.415 1.953c0.106 0.498-0.159 0.976-0.591 1.068z"></path>
            <path fill="#b72f2b" style="fill: var(--color1, #b72f2b)" opacity="0.6" d="M13.938 25.703c-0.432-0.092-0.697-0.57-0.591-1.068l0.415-1.953c0.106-0.498 0.542-0.827 0.974-0.735s0.697 0.57 0.591 1.068l-0.415 1.953c-0.106 0.498-0.542 0.827-0.974 0.735z"></path>
            <path fill="#b72f2b" style="fill: var(--color1, #b72f2b)" opacity="0.666667" d="M10.169 24.025c-0.357-0.26-0.405-0.804-0.105-1.216l1.174-1.615c0.299-0.412 0.831-0.535 1.189-0.275s0.405 0.804 0.105 1.216l-1.174 1.615c-0.299 0.412-0.831 0.535-1.189 0.275z"></path>
            <path fill="#b72f2b" style="fill: var(--color1, #b72f2b)" opacity="0.733334" d="M7.409 20.96c-0.221-0.383-0.043-0.899 0.398-1.154l1.729-0.998c0.441-0.255 0.977-0.151 1.198 0.232s0.043 0.899-0.398 1.154l-1.729 0.998c-0.441 0.255-0.977 0.151-1.198-0.232z"></path>
            <path fill="#b72f2b" style="fill: var(--color1, #b72f2b)" opacity="0.8" d="M6.134 17.037c-0.046-0.439 0.327-0.839 0.833-0.892l1.986-0.209c0.506-0.053 0.954 0.26 1 0.699s-0.327 0.839-0.833 0.892l-1.986 0.209c-0.506 0.053-0.954-0.26-1-0.699z"></path>
            <path fill="#b72f2b" style="fill: var(--color1, #b72f2b)" opacity="0.866667" d="M6.566 12.935c0.137-0.42 0.64-0.633 1.124-0.476l1.899 0.617c0.484 0.157 0.766 0.625 0.629 1.046s-0.64 0.633-1.124 0.476l-1.899-0.617c-0.484-0.157-0.766-0.625-0.629-1.046z"></path>
            <path fill="#b72f2b" style="fill: var(--color1, #b72f2b)" opacity="0.933334" d="M8.628 9.362c0.296-0.328 0.842-0.318 1.22 0.022l1.484 1.336c0.378 0.341 0.445 0.883 0.15 1.211s-0.842 0.318-1.22-0.022l-1.484-1.336c-0.378-0.341-0.445-0.883-0.15-1.211z"></path>
            <path fill="#b72f2b" style="fill: var(--color1, #b72f2b)" d="M11.965 6.938c0.404-0.18 0.899 0.052 1.106 0.517l0.812 1.824c0.207 0.465 0.048 0.988-0.356 1.167s-0.899-0.052-1.106-0.517l-0.812-1.824c-0.207-0.465-0.048-0.988 0.356-1.167z"></path>
        </symbol>
    </defs>
</svg>
